HIERARCHY
ROOT Hips
{
	OFFSET	0.00	0.00	0.00
	CHANNELS 6 Xposition Yposition Zposition Zrotation Xrotation Yrotation
	JOINT LeftUpLeg
	{
		OFFSET	 0.126116	-0.014019	-0.065224
		CHANNELS 3 Zrotation Xrotation Yrotation
		JOINT LeftLeg
		{
			OFFSET	 0.000000	 0.000000	 0.569914
			CHANNELS 3 Zrotation Xrotation Yrotation
			JOINT LeftFoot
			{
				OFFSET	 0.000000	 0.000000	 0.544423
				CHANNELS 3 Zrotation Xrotation Yrotation
				JOINT LeftToeBase
				{
					OFFSET	 0.000000	 0.000000	 0.207117
					CHANNELS 3 Zrotation Xrotation Yrotation
					End Site
					{
						OFFSET	 0.000000	 0.000000	 0.207117
					}
				}
			}
		}
	}
	JOINT RightUpLeg
	{
		OFFSET	-0.124023	-0.008373	-0.065224
		CHANNELS 3 Zrotation Xrotation Yrotation
		JOINT RightLeg
		{
			OFFSET	 0.000000	 0.000000	 0.570047
			CHANNELS 3 Zrotation Xrotation Yrotation
			JOINT RightFoot
			{
				OFFSET	 0.000000	 0.000000	 0.544354
				CHANNELS 3 Zrotation Xrotation Yrotation
				JOINT RightToeBase
				{
					OFFSET	 0.000000	 0.000000	 0.207540
					CHANNELS 3 Zrotation Xrotation Yrotation
					End Site
					{
						OFFSET	 0.000000	 0.000000	 0.207540
					}
				}
			}
		}
	}
	JOINT Spine
	{
		OFFSET	 0.000184	-0.007763	 0.117403
		CHANNELS 3 Zrotation Xrotation Yrotation
		JOINT Spine1
		{
			OFFSET	 0.000000	 0.000000	 0.137269
			CHANNELS 3 Zrotation Xrotation Yrotation
			JOINT Spine2
			{
				OFFSET	 0.000000	 0.000000	 0.156879
				CHANNELS 3 Zrotation Xrotation Yrotation
				JOINT LeftShoulder
				{
					OFFSET	 0.080501	-0.002496	 0.160144
					CHANNELS 3 Zrotation Xrotation Yrotation
					JOINT LeftArm
					{
						OFFSET	 0.000000	 0.000000	 0.164363
						CHANNELS 3 Zrotation Xrotation Yrotation
						JOINT LeftForeArm
						{
							OFFSET	 0.000000	 0.000000	 0.364576
							CHANNELS 3 Zrotation Xrotation Yrotation
							JOINT LeftHand
							{
								OFFSET	 0.000000	 0.000000	 0.360812
								CHANNELS 3 Zrotation Xrotation Yrotation
								JOINT LeftHandIndex1
								{
									OFFSET	 0.000000	 0.000000	 0.086006
									CHANNELS 3 Zrotation Xrotation Yrotation
									JOINT LeftHandIndex2
									{
										OFFSET	 0.000000	 0.000000	 0.047236
										CHANNELS 3 Zrotation Xrotation Yrotation
										JOINT LeftHandIndex3
										{
											OFFSET	-0.004284	-0.000551	 0.038166
											CHANNELS 3 Zrotation Xrotation Yrotation
											End Site
											{
												OFFSET	-0.004284	-0.000551	 0.038166
											}
										}
									}
								}
							}
						}
					}
				}
				JOINT Neck
				{
					OFFSET	 0.000000	 0.000000	 0.176489
					CHANNELS 3 Zrotation Xrotation Yrotation
					JOINT Head
					{
						OFFSET	 0.000000	-0.001747	 0.077940
						CHANNELS 3 Zrotation Xrotation Yrotation
						End Site
						{
							OFFSET	 0.000000	-0.001747	 0.077940
						}
					}
				}
				JOINT RightShoulder
				{
					OFFSET	-0.080363	 0.000306	 0.159706
					CHANNELS 3 Zrotation Xrotation Yrotation
					JOINT RightArm
					{
						OFFSET	 0.000000	 0.000000	 0.164196
						CHANNELS 3 Zrotation Xrotation Yrotation
						JOINT RightForeArm
						{
							OFFSET	 0.000000	 0.000000	 0.365611
							CHANNELS 3 Zrotation Xrotation Yrotation
							JOINT RightHand
							{
								OFFSET	 0.000000	 0.000000	 0.360648
								CHANNELS 3 Zrotation Xrotation Yrotation
								JOINT RightHandIndex1
								{
									OFFSET	 0.000000	 0.000000	 0.069977
									CHANNELS 3 Zrotation Xrotation Yrotation
									JOINT RightHandIndex2
									{
										OFFSET	 0.000000	 0.000000	 0.052305
										CHANNELS 3 Zrotation Xrotation Yrotation
										JOINT RightHandIndex3
										{
											OFFSET	 0.009002	-0.000782	 0.042196
											CHANNELS 3 Zrotation Xrotation Yrotation
											End Site
											{
												OFFSET	 0.009002	-0.000782	 0.042196
											}
										}
									}
								}
							}
						}
					}
				}
			}
		}
	}
}
MOTION
Frames:    5
Frame Time: 0.03333334
 0.204525	 2.559494	-1.007088	 10.492920	-2.139893	 0.381217	 6.795409	-3.475344	-178.919500	-2.236883	-36.232040	 1.487972	 6.320409	 89.490630	-4.965403	-2.376070	 30.444150	-0.043650	 1.386964	-28.324000	 179.405100	 24.230830	-74.650430	 27.714700	 139.759800	 89.882970	-132.545300	 2.379043	 29.581380	 0.026013	-0.741355	 3.137591	 0.977242	-0.436711	-3.915972	 1.108508	 0.669168	-7.066635	 0.085219	-91.803380	 77.924950	 178.944200	 35.852640	 64.059100	-47.039310	-9.090773	-4.141520	-28.593860	 0.336929	-33.191420	-6.414455	-3.812334	 37.924440	-2.927599	-2.450526	 36.184240	 0.754587	-1.378229	 35.397820	-2.634230	-0.305718	 4.022104	-1.683920	 0.554825	-12.355240	-1.529793	 89.795460	 78.900990	 179.564000	-41.904350	 71.322400	 44.261270	 1.579287	-7.494741	 25.187040	-7.263386	-33.960460	 11.560640	 6.437017	 35.671460	-0.771858	 2.830251	 35.756010	-7.813440	-2.350882	 35.473990	 5.254307
 0.221581	 2.494175	-1.011409	 10.806680	-1.773884	-0.513970	 6.020709	 1.639460	-177.500100	-3.035971	-32.098440	 0.946383	 19.949810	 89.857350	-19.341970	-2.376062	 30.445950	-0.043686	 1.965331	-32.465660	 179.729000	 14.282100	-66.018940	 17.357480	-175.673500	 88.884250	-176.694100	 2.377715	 29.844320	 0.031804	-0.947909	 3.085470	 1.971306	-0.833072	-4.048322	 1.031108	 0.436230	-7.210713	 0.056097	-91.774980	 78.549640	 178.797700	 35.124340	 62.348690	-48.596720	-8.686440	-4.472961	-31.100690	 0.385039	-33.967940	-6.471948	-3.812334	 37.924440	-2.927599	-2.450526	 36.184240	 0.754587	-1.378229	 35.397820	-2.634230	-0.356980	 4.163579	-2.344518	 0.698126	-12.775550	-1.188172	 89.783870	 78.281590	 179.466200	-41.666630	 71.487140	 42.972750	 1.882348	-7.680489	 26.756200	-6.631415	-34.709280	 11.676280	 6.437017	 35.671460	-0.771858	 2.830251	 35.756010	-7.813440	-2.350882	 35.473990	 5.254307
 0.236164	 2.431620	-1.013863	 11.016050	-1.215291	-0.873420	 6.303505	 7.767328	-177.002800	-3.495879	-24.955360	 1.121186	 7.561367	 88.829310	-6.535971	-2.367593	 31.911770	-0.076665	 2.301103	-34.737450	 179.719300	 9.545508	-55.854070	 11.776970	-155.940800	 89.417850	 164.060300	 2.385489	 28.198230	-0.004114	-1.034882	 2.835042	 2.416136	-1.059947	-4.161736	 0.988510	 0.224890	-7.277948	 0.029051	-91.759690	 78.825940	 178.755600	 34.608230	 61.056740	-49.844830	-8.637517	-4.502200	-32.578330	 0.076082	-34.643620	-6.521728	-3.812334	 37.924440	-2.927599	-2.450526	 36.184240	 0.754587	-1.378229	 35.397820	-2.634230	-0.336564	 4.341465	-2.785121	 0.722633	-13.082510	-1.130372	 89.777500	 78.007090	 179.449100	-41.539810	 71.727710	 42.339890	 2.057925	-7.707264	 27.146270	-6.325254	-35.358390	 11.772830	 6.437017	 35.671460	-0.771858	 2.830251	 35.756010	-7.813440	-2.350882	 35.473990	 5.254307
 0.253722	 2.351002	-1.017510	 11.351050	-0.762541	-1.220415	 8.253646	 18.016230	-176.742400	-4.074781	-11.620780	 1.563643	 3.470321	 84.043750	 0.349162	-2.340156	 35.708460	-0.166029	 3.052628	-35.849330	 179.770400	 5.389620	-43.919500	 7.109955	-154.070800	 89.507820	 161.876800	 2.382886	 28.781640	 0.008519	-1.048798	 2.417824	 2.733656	-1.166333	-4.318171	 1.038805	 0.115649	-7.281022	 0.014942	-91.752520	 78.944520	 178.732100	 34.320670	 60.305440	-51.009230	-8.676025	-4.503286	-33.033050	-0.101856	-35.353170	-6.579952	-3.812334	 37.924440	-2.927599	-2.450526	 36.184240	 0.754587	-1.378229	 35.397820	-2.634230	-0.161366	 4.383292	-3.172125	 0.830698	-13.116620	-1.006986	 89.774690	 77.890220	 179.440000	-41.303280	 72.192160	 42.049180	 2.003200	-7.560493	 25.876400	-6.491464	-36.073430	 11.872220	 6.437017	 35.671460	-0.771858	 2.830251	 35.756010	-7.813440	-2.350882	 35.473990	 5.254307
 0.263726	 2.292964	-1.019667	 11.868680	-0.865584	-1.290686	 8.316463	 20.932830	-177.476700	-3.629282	-11.610900	 1.636346	 4.109587	 84.012540	 0.054981	-2.306393	 39.247860	-0.255652	 3.221277	-35.529370	 179.699600	 3.331261	-38.669220	 5.051572	-171.696700	 89.145910	 178.608600	 2.371060	 31.068940	 0.059093	-1.227217	 2.535981	 2.590077	-1.311443	-4.337179	 1.035991	 0.055360	-7.234232	 0.007129	-91.756820	 78.860890	 178.697200	 34.856240	 60.334840	-52.130020	-8.637103	-4.498603	-32.352210	-0.050979	-35.786990	-6.614188	-3.812334	 37.924440	-2.927599	-2.450526	 36.184240	 0.754587	-1.378229	 35.397820	-2.634230	-0.110621	 4.250267	-3.245385	 0.925945	-12.888620	-0.746481	 89.775510	 77.967740	 179.337500	-40.839570	 72.647810	 41.702390	 1.893220	-7.371206	 24.283420	-6.862829	-36.510890	 11.927590	 6.437017	 35.671460	-0.771858	 2.830251	 35.756010	-7.813440	-2.350882	 35.473990	 5.254307
